<?xml version="1.0" encoding="UTF-8"?>
<svg xmlns="http://www.w3.org/2000/svg" xmlns:xlink="http://www.w3.org/1999/xlink" width="3872.98" height="3872.98" viewBox="0 0 3872.98 3872.98">
<defs>
<clipPath id="clip-0">
<path clip-rule="nonzero" d="M 698 697 L 3175 697 L 3175 3176 L 698 3176 Z M 698 697 "/>
</clipPath>
<clipPath id="clip-1">
<path clip-rule="evenodd" d="M 974.449219 783.859375 C 869.574219 783.859375 784.859375 868.570312 784.859375 973.460938 L 784.859375 2897.511719 C 784.859375 3002.390625 869.574219 3087.089844 974.449219 3087.089844 L 2898.511719 3087.089844 C 3003.390625 3087.089844 3088.101562 3002.390625 3088.101562 2897.511719 L 3088.101562 973.460938 C 3088.101562 868.578125 3003.390625 783.859375 2898.511719 783.859375 Z M 1172.089844 1501.859375 Z M 1055.121094 1735.820312 L 1172.089844 1735.820312 C 1236.640625 1735.820312 1289.070312 1683.378906 1289.070312 1618.839844 C 1289.070312 1554.300781 1236.640625 1501.859375 1172.089844 1501.859375 L 1055.121094 1501.859375 Z M 1055.121094 1413.121094 L 1172.089844 1413.121094 C 1177.941406 1413.121094 1183.71875 1413.371094 1189.449219 1413.859375 C 1245.78125 1405.460938 1289.070312 1356.808594 1289.070312 1298.148438 C 1289.070312 1233.621094 1236.640625 1181.179688 1172.089844 1181.179688 L 1055.121094 1181.191406 Z M 1172.089844 1824.558594 C 1285.039062 1824.558594 1375.800781 1731.78125 1375.800781 1616.828125 C 1375.800781 1552.050781 1345.941406 1494.578125 1299.171875 1457.328125 C 1345.941406 1419.671875 1375.800781 1361.21875 1375.800781 1294.128906 C 1375.800781 1181.179688 1285.039062 1090.429688 1172.089844 1090.429688 L 1010.75 1090.429688 C 986.546875 1090.429688 966.375 1110.589844 966.375 1134.800781 L 966.375 1780.191406 C 966.375 1804.390625 986.546875 1824.558594 1010.75 1824.558594 Z M 1821.519531 1822.539062 C 1845.71875 1822.539062 1865.890625 1804.390625 1865.890625 1780.191406 C 1865.890625 1755.980469 1845.730469 1735.820312 1821.519531 1735.820312 L 1543.199219 1735.820312 L 1543.199219 1136.820312 C 1543.199219 1112.609375 1523.03125 1092.449219 1498.828125 1092.449219 C 1474.621094 1092.449219 1454.460938 1112.609375 1454.460938 1136.820312 L 1454.460938 1778.171875 C 1454.460938 1802.371094 1474.621094 1822.539062 1498.828125 1822.539062 Z M 2081.691406 1179.160156 C 2035.300781 1179.160156 1996.988281 1217.488281 1996.988281 1263.878906 L 1996.988281 1649.089844 C 1996.988281 1695.480469 2035.300781 1733.800781 2081.691406 1733.800781 L 2146.230469 1733.800781 C 2192.621094 1733.800781 2230.929688 1695.480469 2230.929688 1649.089844 L 2230.929688 1265.898438 C 2230.929688 1219.511719 2192.621094 1181.191406 2146.230469 1181.191406 L 2081.691406 1181.191406 Z M 2146.230469 1822.539062 C 2241.019531 1822.539062 2317.671875 1745.898438 2317.648438 1651.109375 L 2317.648438 1265.898438 C 2317.648438 1171.109375 2241.019531 1094.46875 2146.230469 1094.46875 L 2081.691406 1094.46875 C 1986.898438 1094.46875 1910.261719 1171.109375 1910.261719 1265.898438 L 1910.261719 1651.109375 C 1910.261719 1745.898438 1986.898438 1822.539062 2081.691406 1822.539062 Z M 2781.539062 1822.539062 C 2805.730469 1822.539062 2825.898438 1804.390625 2825.898438 1780.191406 L 2825.898438 1445.398438 C 2825.898438 1421.191406 2805.730469 1401.019531 2781.539062 1401.019531 L 2630.269531 1401.019531 C 2606.058594 1401.019531 2585.890625 1421.191406 2585.890625 1445.398438 C 2585.890625 1469.601562 2606.058594 1489.769531 2630.269531 1489.769531 L 2737.160156 1489.769531 L 2737.160156 1586.308594 C 2703.828125 1602.851562 2667.050781 1606.679688 2630.269531 1596.648438 C 2581.871094 1582.53125 2541.53125 1548.238281 2515.308594 1497.820312 C 2462.871094 1394.980469 2493.128906 1263.878906 2581.871094 1205.378906 C 2620.191406 1179.160156 2664.550781 1171.109375 2708.929688 1183.199219 C 2757.328125 1197.320312 2797.671875 1231.601562 2823.890625 1282.019531 C 2833.980469 1304.210938 2860.179688 1312.28125 2882.378906 1302.191406 C 2904.558594 1292.109375 2912.640625 1265.890625 2902.53125 1243.699219 C 2866.25 1171.101562 2803.71875 1120.679688 2731.109375 1100.5 C 2664.570312 1082.359375 2593.96875 1092.449219 2533.46875 1132.78125 C 2408.421875 1215.46875 2366.070312 1396.980469 2436.648438 1538.171875 C 2472.949219 1610.78125 2535.480469 1661.199219 2608.089844 1681.359375 C 2628.238281 1687.421875 2650.441406 1689.429688 2670.601562 1689.429688 C 2692.929688 1689.429688 2715.269531 1686.621094 2737.160156 1680.339844 L 2737.160156 1778.171875 C 2737.160156 1802.371094 2757.328125 1822.539062 2781.539062 1822.539062 Z M 2775.488281 2217.828125 C 2799.679688 2217.828125 2819.851562 2197.679688 2819.851562 2173.46875 C 2819.851562 2149.261719 2799.679688 2129.089844 2775.488281 2129.089844 L 1038.980469 2129.089844 C 1014.78125 2129.089844 994.613281 2149.261719 994.613281 2173.46875 C 994.613281 2197.660156 1014.78125 2217.828125 1038.980469 2217.828125 Z M 2775.488281 2498.171875 C 2799.679688 2498.171875 2819.851562 2478.019531 2819.851562 2453.808594 C 2819.851562 2429.601562 2799.679688 2409.441406 2775.488281 2409.441406 L 1038.980469 2409.429688 C 1014.78125 2409.429688 994.613281 2429.601562 994.613281 2453.808594 C 994.613281 2478.019531 1014.78125 2498.171875 1038.980469 2498.171875 Z M 2775.488281 2780.539062 C 2799.679688 2780.539062 2819.851562 2760.359375 2819.851562 2736.171875 C 2819.851562 2711.960938 2799.679688 2691.789062 2775.488281 2691.789062 L 1038.980469 2691.789062 C 1014.78125 2691.789062 994.613281 2711.960938 994.613281 2736.171875 C 994.613281 2760.359375 1014.78125 2780.539062 1038.980469 2780.539062 Z M 2898.511719 3175.839844 L 974.449219 3175.839844 C 821.164062 3175.839844 698.132812 3050.789062 698.132812 2899.539062 L 698.132812 973.460938 C 698.132812 822.191406 823.183594 697.140625 974.449219 697.140625 L 2898.511719 697.140625 C 3051.789062 697.140625 3174.828125 822.191406 3174.828125 973.460938 L 3174.828125 2897.511719 C 3176.839844 3050.789062 3051.789062 3175.839844 2898.511719 3175.839844 "/>
</clipPath>
<linearGradient id="linear-pattern-0" gradientUnits="userSpaceOnUse" x1="0" y1="0" x2="1.001603" y2="0" gradientTransform="matrix(2474.74, 0, 0, 2474.74, 698.133, 1936.49)">
<stop offset="0" stop-color="rgb(94.508362%, 95.684814%, 98.03772%)" stop-opacity="1"/>
<stop offset="0.0078125" stop-color="rgb(94.314575%, 95.552063%, 97.976685%)" stop-opacity="1"/>
<stop offset="0.015625" stop-color="rgb(93.928528%, 95.285034%, 97.854614%)" stop-opacity="1"/>
<stop offset="0.0234375" stop-color="rgb(93.54248%, 95.018005%, 97.731018%)" stop-opacity="1"/>
<stop offset="0.03125" stop-color="rgb(93.154907%, 94.750977%, 97.608948%)" stop-opacity="1"/>
<stop offset="0.0390625" stop-color="rgb(92.76886%, 94.483948%, 97.485352%)" stop-opacity="1"/>
<stop offset="0.046875" stop-color="rgb(92.381287%, 94.216919%, 97.363281%)" stop-opacity="1"/>
<stop offset="0.0546875" stop-color="rgb(91.995239%, 93.94989%, 97.239685%)" stop-opacity="1"/>
<stop offset="0.0625" stop-color="rgb(91.609192%, 93.682861%, 97.117615%)" stop-opacity="1"/>
<stop offset="0.0703125" stop-color="rgb(91.221619%, 93.415833%, 96.994019%)" stop-opacity="1"/>
<stop offset="0.078125" stop-color="rgb(90.835571%, 93.148804%, 96.871948%)" stop-opacity="1"/>
<stop offset="0.0859375" stop-color="rgb(90.449524%, 92.881775%, 96.749878%)" stop-opacity="1"/>
<stop offset="0.09375" stop-color="rgb(90.061951%, 92.614746%, 96.626282%)" stop-opacity="1"/>
<stop offset="0.101562" stop-color="rgb(89.675903%, 92.347717%, 96.504211%)" stop-opacity="1"/>
<stop offset="0.109375" stop-color="rgb(89.28833%, 92.080688%, 96.380615%)" stop-opacity="1"/>
<stop offset="0.117188" stop-color="rgb(88.902283%, 91.81366%, 96.258545%)" stop-opacity="1"/>
<stop offset="0.125" stop-color="rgb(88.516235%, 91.546631%, 96.134949%)" stop-opacity="1"/>
<stop offset="0.132812" stop-color="rgb(88.128662%, 91.279602%, 96.012878%)" stop-opacity="1"/>
<stop offset="0.140625" stop-color="rgb(87.742615%, 91.012573%, 95.890808%)" stop-opacity="1"/>
<stop offset="0.148438" stop-color="rgb(87.355042%, 90.745544%, 95.767212%)" stop-opacity="1"/>
<stop offset="0.15625" stop-color="rgb(86.968994%, 90.478516%, 95.645142%)" stop-opacity="1"/>
<stop offset="0.164063" stop-color="rgb(86.582947%, 90.211487%, 95.521545%)" stop-opacity="1"/>
<stop offset="0.171875" stop-color="rgb(86.195374%, 89.944458%, 95.399475%)" stop-opacity="1"/>
<stop offset="0.179688" stop-color="rgb(85.809326%, 89.677429%, 95.275879%)" stop-opacity="1"/>
<stop offset="0.1875" stop-color="rgb(85.421753%, 89.4104%, 95.153809%)" stop-opacity="1"/>
<stop offset="0.195312" stop-color="rgb(85.035706%, 89.143372%, 95.030212%)" stop-opacity="1"/>
<stop offset="0.203125" stop-color="rgb(84.649658%, 88.876343%, 94.908142%)" stop-opacity="1"/>
<stop offset="0.210937" stop-color="rgb(84.262085%, 88.609314%, 94.786072%)" stop-opacity="1"/>
<stop offset="0.21875" stop-color="rgb(83.876038%, 88.343811%, 94.662476%)" stop-opacity="1"/>
<stop offset="0.226562" stop-color="rgb(83.488464%, 88.076782%, 94.540405%)" stop-opacity="1"/>
<stop offset="0.234375" stop-color="rgb(83.102417%, 87.809753%, 94.416809%)" stop-opacity="1"/>
<stop offset="0.242188" stop-color="rgb(82.71637%, 87.542725%, 94.294739%)" stop-opacity="1"/>
<stop offset="0.25" stop-color="rgb(82.328796%, 87.275696%, 94.171143%)" stop-opacity="1"/>
<stop offset="0.257813" stop-color="rgb(81.942749%, 87.008667%, 94.049072%)" stop-opacity="1"/>
<stop offset="0.265625" stop-color="rgb(81.555176%, 86.741638%, 93.925476%)" stop-opacity="1"/>
<stop offset="0.273438" stop-color="rgb(81.169128%, 86.474609%, 93.803406%)" stop-opacity="1"/>
<stop offset="0.28125" stop-color="rgb(80.783081%, 86.207581%, 93.681335%)" stop-opacity="1"/>
<stop offset="0.289063" stop-color="rgb(80.395508%, 85.940552%, 93.557739%)" stop-opacity="1"/>
<stop offset="0.296875" stop-color="rgb(80.00946%, 85.673523%, 93.435669%)" stop-opacity="1"/>
<stop offset="0.304688" stop-color="rgb(79.621887%, 85.406494%, 93.312073%)" stop-opacity="1"/>
<stop offset="0.3125" stop-color="rgb(79.23584%, 85.139465%, 93.190002%)" stop-opacity="1"/>
<stop offset="0.320313" stop-color="rgb(78.849792%, 84.872437%, 93.066406%)" stop-opacity="1"/>
<stop offset="0.328125" stop-color="rgb(78.462219%, 84.605408%, 92.944336%)" stop-opacity="1"/>
<stop offset="0.335938" stop-color="rgb(78.076172%, 84.338379%, 92.82074%)" stop-opacity="1"/>
<stop offset="0.34375" stop-color="rgb(77.690125%, 84.07135%, 92.698669%)" stop-opacity="1"/>
<stop offset="0.351562" stop-color="rgb(77.302551%, 83.804321%, 92.576599%)" stop-opacity="1"/>
<stop offset="0.359375" stop-color="rgb(76.916504%, 83.537292%, 92.453003%)" stop-opacity="1"/>
<stop offset="0.367188" stop-color="rgb(76.528931%, 83.270264%, 92.330933%)" stop-opacity="1"/>
<stop offset="0.375" stop-color="rgb(76.142883%, 83.003235%, 92.207336%)" stop-opacity="1"/>
<stop offset="0.382812" stop-color="rgb(75.756836%, 82.736206%, 92.085266%)" stop-opacity="1"/>
<stop offset="0.390625" stop-color="rgb(75.369263%, 82.469177%, 91.96167%)" stop-opacity="1"/>
<stop offset="0.398438" stop-color="rgb(74.983215%, 82.202148%, 91.8396%)" stop-opacity="1"/>
<stop offset="0.40625" stop-color="rgb(74.595642%, 81.93512%, 91.716003%)" stop-opacity="1"/>
<stop offset="0.414062" stop-color="rgb(74.209595%, 81.668091%, 91.593933%)" stop-opacity="1"/>
<stop offset="0.421875" stop-color="rgb(73.823547%, 81.401062%, 91.471863%)" stop-opacity="1"/>
<stop offset="0.429687" stop-color="rgb(73.435974%, 81.135559%, 91.348267%)" stop-opacity="1"/>
<stop offset="0.4375" stop-color="rgb(73.049927%, 80.86853%, 91.226196%)" stop-opacity="1"/>
<stop offset="0.445312" stop-color="rgb(72.662354%, 80.601501%, 91.1026%)" stop-opacity="1"/>
<stop offset="0.453125" stop-color="rgb(72.276306%, 80.334473%, 90.98053%)" stop-opacity="1"/>
<stop offset="0.460937" stop-color="rgb(71.890259%, 80.067444%, 90.856934%)" stop-opacity="1"/>
<stop offset="0.46875" stop-color="rgb(71.502686%, 79.800415%, 90.734863%)" stop-opacity="1"/>
<stop offset="0.476562" stop-color="rgb(71.116638%, 79.533386%, 90.611267%)" stop-opacity="1"/>
<stop offset="0.484375" stop-color="rgb(70.729065%, 79.266357%, 90.489197%)" stop-opacity="1"/>
<stop offset="0.492187" stop-color="rgb(70.343018%, 78.999329%, 90.367126%)" stop-opacity="1"/>
<stop offset="0.5" stop-color="rgb(69.95697%, 78.7323%, 90.24353%)" stop-opacity="1"/>
<stop offset="0.507812" stop-color="rgb(69.569397%, 78.465271%, 90.12146%)" stop-opacity="1"/>
<stop offset="0.515625" stop-color="rgb(69.18335%, 78.198242%, 89.997864%)" stop-opacity="1"/>
<stop offset="0.523438" stop-color="rgb(68.795776%, 77.931213%, 89.875793%)" stop-opacity="1"/>
<stop offset="0.53125" stop-color="rgb(68.409729%, 77.664185%, 89.752197%)" stop-opacity="1"/>
<stop offset="0.539062" stop-color="rgb(68.023682%, 77.397156%, 89.630127%)" stop-opacity="1"/>
<stop offset="0.546875" stop-color="rgb(67.636108%, 77.130127%, 89.506531%)" stop-opacity="1"/>
<stop offset="0.554688" stop-color="rgb(67.250061%, 76.863098%, 89.38446%)" stop-opacity="1"/>
<stop offset="0.5625" stop-color="rgb(66.862488%, 76.596069%, 89.26239%)" stop-opacity="1"/>
<stop offset="0.570313" stop-color="rgb(66.47644%, 76.329041%, 89.138794%)" stop-opacity="1"/>
<stop offset="0.578125" stop-color="rgb(66.090393%, 76.062012%, 89.016724%)" stop-opacity="1"/>
<stop offset="0.585938" stop-color="rgb(65.70282%, 75.794983%, 88.893127%)" stop-opacity="1"/>
<stop offset="0.59375" stop-color="rgb(65.316772%, 75.527954%, 88.771057%)" stop-opacity="1"/>
<stop offset="0.601563" stop-color="rgb(64.930725%, 75.260925%, 88.647461%)" stop-opacity="1"/>
<stop offset="0.609375" stop-color="rgb(64.543152%, 74.993896%, 88.525391%)" stop-opacity="1"/>
<stop offset="0.617188" stop-color="rgb(64.157104%, 74.726868%, 88.40332%)" stop-opacity="1"/>
<stop offset="0.625" stop-color="rgb(63.769531%, 74.459839%, 88.279724%)" stop-opacity="1"/>
<stop offset="0.632813" stop-color="rgb(63.383484%, 74.19281%, 88.157654%)" stop-opacity="1"/>
<stop offset="0.640625" stop-color="rgb(62.997437%, 73.927307%, 88.034058%)" stop-opacity="1"/>
<stop offset="0.648438" stop-color="rgb(62.609863%, 73.660278%, 87.911987%)" stop-opacity="1"/>
<stop offset="0.65625" stop-color="rgb(62.223816%, 73.39325%, 87.788391%)" stop-opacity="1"/>
<stop offset="0.664063" stop-color="rgb(61.836243%, 73.126221%, 87.666321%)" stop-opacity="1"/>
<stop offset="0.671875" stop-color="rgb(61.450195%, 72.859192%, 87.542725%)" stop-opacity="1"/>
<stop offset="0.679688" stop-color="rgb(61.064148%, 72.592163%, 87.420654%)" stop-opacity="1"/>
<stop offset="0.6875" stop-color="rgb(60.676575%, 72.325134%, 87.298584%)" stop-opacity="1"/>
<stop offset="0.695312" stop-color="rgb(60.290527%, 72.058105%, 87.174988%)" stop-opacity="1"/>
<stop offset="0.703125" stop-color="rgb(59.902954%, 71.791077%, 87.052917%)" stop-opacity="1"/>
<stop offset="0.710938" stop-color="rgb(59.516907%, 71.524048%, 86.929321%)" stop-opacity="1"/>
<stop offset="0.71875" stop-color="rgb(59.130859%, 71.257019%, 86.807251%)" stop-opacity="1"/>
<stop offset="0.726562" stop-color="rgb(58.743286%, 70.98999%, 86.683655%)" stop-opacity="1"/>
<stop offset="0.734375" stop-color="rgb(58.357239%, 70.722961%, 86.561584%)" stop-opacity="1"/>
<stop offset="0.742188" stop-color="rgb(57.969666%, 70.455933%, 86.437988%)" stop-opacity="1"/>
<stop offset="0.75" stop-color="rgb(57.583618%, 70.188904%, 86.315918%)" stop-opacity="1"/>
<stop offset="0.757812" stop-color="rgb(57.197571%, 69.921875%, 86.193848%)" stop-opacity="1"/>
<stop offset="0.765625" stop-color="rgb(56.809998%, 69.654846%, 86.070251%)" stop-opacity="1"/>
<stop offset="0.773438" stop-color="rgb(56.42395%, 69.387817%, 85.948181%)" stop-opacity="1"/>
<stop offset="0.78125" stop-color="rgb(56.036377%, 69.120789%, 85.824585%)" stop-opacity="1"/>
<stop offset="0.789062" stop-color="rgb(55.65033%, 68.85376%, 85.702515%)" stop-opacity="1"/>
<stop offset="0.796875" stop-color="rgb(55.264282%, 68.586731%, 85.578918%)" stop-opacity="1"/>
<stop offset="0.804688" stop-color="rgb(54.876709%, 68.319702%, 85.456848%)" stop-opacity="1"/>
<stop offset="0.8125" stop-color="rgb(54.490662%, 68.052673%, 85.333252%)" stop-opacity="1"/>
<stop offset="0.820312" stop-color="rgb(54.103088%, 67.785645%, 85.211182%)" stop-opacity="1"/>
<stop offset="0.828125" stop-color="rgb(53.717041%, 67.518616%, 85.089111%)" stop-opacity="1"/>
<stop offset="0.835937" stop-color="rgb(53.330994%, 67.251587%, 84.965515%)" stop-opacity="1"/>
<stop offset="0.84375" stop-color="rgb(52.94342%, 66.986084%, 84.843445%)" stop-opacity="1"/>
<stop offset="0.851562" stop-color="rgb(52.557373%, 66.719055%, 84.719849%)" stop-opacity="1"/>
<stop offset="0.859375" stop-color="rgb(52.171326%, 66.452026%, 84.597778%)" stop-opacity="1"/>
<stop offset="0.867187" stop-color="rgb(51.783752%, 66.184998%, 84.474182%)" stop-opacity="1"/>
<stop offset="0.875" stop-color="rgb(51.397705%, 65.917969%, 84.352112%)" stop-opacity="1"/>
<stop offset="0.882812" stop-color="rgb(51.010132%, 65.65094%, 84.228516%)" stop-opacity="1"/>
<stop offset="0.890625" stop-color="rgb(50.624084%, 65.383911%, 84.106445%)" stop-opacity="1"/>
<stop offset="0.898437" stop-color="rgb(50.238037%, 65.116882%, 83.984375%)" stop-opacity="1"/>
<stop offset="0.90625" stop-color="rgb(49.850464%, 64.849854%, 83.860779%)" stop-opacity="1"/>
<stop offset="0.914062" stop-color="rgb(49.464417%, 64.582825%, 83.738708%)" stop-opacity="1"/>
<stop offset="0.921875" stop-color="rgb(49.076843%, 64.315796%, 83.615112%)" stop-opacity="1"/>
<stop offset="0.929687" stop-color="rgb(48.690796%, 64.048767%, 83.493042%)" stop-opacity="1"/>
<stop offset="0.9375" stop-color="rgb(48.304749%, 63.781738%, 83.369446%)" stop-opacity="1"/>
<stop offset="0.945312" stop-color="rgb(47.917175%, 63.514709%, 83.247375%)" stop-opacity="1"/>
<stop offset="0.953125" stop-color="rgb(47.531128%, 63.247681%, 83.123779%)" stop-opacity="1"/>
<stop offset="0.960938" stop-color="rgb(47.143555%, 62.980652%, 83.001709%)" stop-opacity="1"/>
<stop offset="0.96875" stop-color="rgb(46.757507%, 62.713623%, 82.879639%)" stop-opacity="1"/>
<stop offset="0.976562" stop-color="rgb(46.37146%, 62.446594%, 82.756042%)" stop-opacity="1"/>
<stop offset="0.984375" stop-color="rgb(45.983887%, 62.179565%, 82.633972%)" stop-opacity="1"/>
<stop offset="0.992188" stop-color="rgb(45.597839%, 61.912537%, 82.510376%)" stop-opacity="1"/>
<stop offset="1" stop-color="rgb(45.249939%, 61.672974%, 82.400513%)" stop-opacity="1"/>
</linearGradient>
</defs>
<path fill-rule="evenodd" fill="rgb(20.776367%, 43.138123%, 77.34375%)" fill-opacity="1" d="M 1936.488281 0 C 3001.578125 0 3872.980469 871.421875 3872.980469 1936.488281 C 3872.980469 3001.578125 3001.578125 3872.980469 1936.488281 3872.980469 C 871.414062 3872.980469 0 3001.578125 0 1936.488281 C 0 871.421875 871.414062 0 1936.488281 0 "/>
<g clip-path="url(#clip-0)">
<g clip-path="url(#clip-1)">
<path fill-rule="nonzero" fill="url(#linear-pattern-0)" d="M 698.132812 697.140625 L 698.132812 3175.839844 L 3176.839844 3175.839844 L 3176.839844 697.140625 Z M 698.132812 697.140625 "/>
</g>
</g>
</svg>
